<!-- icon666.com - MILLIONS vector ICONS FREE --><svg viewBox="0 0 24 24" xmlns="http://www.w3.org/2000/svg"><g id="Layer_2" data-name="Layer 2"><path d="m18.025 3.074-13.212 3.303a2.392 2.392 0 0 0 -.813 4.267l5.308 2.79a1.109 1.109 0 0 1 .253.254l3.795 6.312a2.364 2.364 0 0 0 1.935 1 2.464 2.464 0 0 0 .458-.043 2.37 2.37 0 0 0 1.874-1.77l3.3-13.212a2.392 2.392 0 0 0 -2.9-2.9z" fill="#8dd1ff"></path><path d="m12.5 12.25a.75.75 0 0 1 -.53-1.28l2.5-2.5a.75.75 0 0 1 1.06 1.06l-2.5 2.5a.744.744 0 0 1 -.53.22z" fill="#fff"></path><path d="m15.657 22.107a2.7 2.7 0 0 1 -2.338-1.337l-3.619-6.038a1.264 1.264 0 0 0 -.429-.428l-6.041-3.623a2.75 2.75 0 0 1 .748-5.026l14.709-3.677.182.728-.182-.728a2.75 2.75 0 0 1 3.335 3.335l-3.677 14.709a2.706 2.706 0 0 1 -2.263 2.053 2.8 2.8 0 0 1 -.425.032zm3.394-18.674-14.709 3.677a1.25 1.25 0 0 0 -.342 2.29l6.038 3.623a2.751 2.751 0 0 1 .943.942l3.624 6.035a1.25 1.25 0 0 0 2.285-.341l3.677-14.71a1.25 1.25 0 0 0 -1.516-1.516z" fill="#004fac"></path></g></svg>